<?xml version="1.0" encoding="UTF-8" standalone="no"?>
<!-- Created with Inkscape (http://www.inkscape.org/) -->

<svg
   xmlns:dc="http://purl.org/dc/elements/1.1/"
   xmlns:cc="http://creativecommons.org/ns#"
   xmlns:rdf="http://www.w3.org/1999/02/22-rdf-syntax-ns#"
   xmlns:svg="http://www.w3.org/2000/svg"
   xmlns="http://www.w3.org/2000/svg"
   xmlns:sodipodi="http://sodipodi.sourceforge.net/DTD/sodipodi-0.dtd"
   xmlns:inkscape="http://www.inkscape.org/namespaces/inkscape"
   version="1.1"
   id="svg60005"
   xml:space="preserve"
   width="800"
   height="800"
   viewBox="0 0 800 800"
   sodipodi:docname="Niger-flag-eagle-publicdomainvectors.org.svg"
   inkscape:version="0.92.4 (5da689c313, 2019-01-14)"><metadata
     id="metadata60011"><rdf:RDF><cc:Work
         rdf:about=""><dc:format>image/svg+xml</dc:format><dc:type
           rdf:resource="http://purl.org/dc/dcmitype/StillImage" /><dc:title></dc:title></cc:Work></rdf:RDF></metadata><defs
     id="defs60009"><clipPath
       clipPathUnits="userSpaceOnUse"
       id="clipPath60021"><path
         d="M 0,600 H 600 V 0 H 0 Z"
         id="path60019"
         inkscape:connector-curvature="0" /></clipPath></defs><sodipodi:namedview
     pagecolor="#ffffff"
     bordercolor="#666666"
     borderopacity="1"
     objecttolerance="10"
     gridtolerance="10"
     guidetolerance="10"
     inkscape:pageopacity="0"
     inkscape:pageshadow="2"
     inkscape:window-width="797"
     inkscape:window-height="480"
     id="namedview60007"
     showgrid="false"
     inkscape:zoom="0.295"
     inkscape:cx="400"
     inkscape:cy="400"
     inkscape:window-x="0"
     inkscape:window-y="0"
     inkscape:window-maximized="0"
     inkscape:current-layer="g60013" /><g
     id="g60013"
     inkscape:groupmode="layer"
     inkscape:label="Niger-flag-eagle-publicdomainvectors.org"
     transform="matrix(1.3333333,0,0,-1.3333333,0,800)"><g
       id="g60015"><g
         id="g60017"
         clip-path="url(#clipPath60021)"><path
           d="m 180.863,168.164 c 15.123,10.889 62.015,54.456 62.015,54.456 3.634,-22.083 -18.366,-62.106 -19.666,-81.68 16.226,8.706 41.299,52.333 58.091,58.687 0,0 9.456,-92.875 15.506,-100.138 13.31,25.412 20.795,97.719 20.795,97.719 0,0 36.909,-39.331 55.221,-51.265 -1.31,19.568 -25.721,49.306 -22.088,71.392 0,0 46.892,-43.564 62.017,-54.453 -6.313,26.045 -55.858,92.121 -66.684,123.833 H 245.526 C 231.623,253.44 186.84,192.841 180.863,168.164"
           style="fill:#34b440;fill-opacity:1;fill-rule:nonzero;stroke:none"
           id="path60023"
           inkscape:connector-curvature="0" /><path
           d="m 404.588,247.593 c 6.466,-11.58 3.933,-25.114 1.208,-32.377 0.605,-5.751 8.771,-8.769 14.826,-8.769 0,0 6.049,-9.679 16.939,-3.631 -3.023,-1.51 -13.916,3.934 -12.407,7.562 0,0 6.446,6.57 1.972,9.68 -8.475,5.903 -8.626,12.404 -5.976,16.641 12.548,20.07 20.644,3.861 18.831,-0.452 1.359,-2.496 6.812,-4.54 12.252,-0.455 1.815,-3.858 1.815,-10.89 -0.227,-15.199 9.074,1.811 9.074,18.378 3.857,20.42 0,0 1.136,7.374 0,11.456 -1.13,4.087 -23.368,2.157 -29.192,3.587 -0.905,16.943 12.102,7.87 13.618,6.659 1.512,-1.202 6.65,2.723 9.07,6.658 3.329,0 9.985,-9.381 6.357,-13.317 9.076,9.984 -1.515,16.949 -4.539,19.67 0.76,5.316 -1.154,9.029 -3.666,10.989 h -7.691 c -3.711,-4.194 -15.798,-21.662 -20.709,-23.395 -2.728,4.239 -4.539,19.661 -2.42,20.872 1.722,0.99 6.19,0.697 8.927,2.523 h -15.907 c -0.137,-11.357 0.968,-24.112 -3.537,-24.31 -5.754,-1.22 -8.859,9.898 -13.766,24.31 h -38.506 c 15.75,-13.54 41.575,-22.819 50.686,-39.122"
           style="fill:#34b440;fill-opacity:1;fill-rule:nonzero;stroke:none"
           id="path60025"
           inkscape:connector-curvature="0" /><path
           d="m 473.261,285.71 c -0.251,0.32 -0.509,0.665 -0.766,1.005 h -1.306 c 0.689,-0.347 1.379,-0.682 2.072,-1.005"
           style="fill:#34b440;fill-opacity:1;fill-rule:nonzero;stroke:none"
           id="path60027"
           inkscape:connector-curvature="0" /><path
           d="m 187.438,267.686 c -3.813,0.168 -3.606,9.332 -3.537,19.029 h -6.105 c 0.366,-4.926 -1.19,-14.843 -3.29,-18.111 -3.663,1.295 -11.319,11.345 -16.515,18.111 h -15.28 c -0.441,-1.627 -0.583,-3.529 -0.273,-5.705 -3.026,-2.722 -13.612,-9.682 -4.537,-19.666 -3.628,3.931 3.026,13.31 6.351,13.31 2.427,-3.927 7.56,-7.862 9.077,-6.656 1.514,1.211 14.522,10.285 13.612,-6.654 -5.818,-1.438 -28.058,0.493 -29.192,-3.591 -1.134,-4.085 0,-11.459 0,-11.459 -5.217,-2.044 -5.217,-18.604 3.858,-20.42 -2.039,4.312 -2.039,11.342 -0.229,15.204 5.448,-4.087 10.894,-2.049 12.253,0.448 -1.814,4.311 6.288,20.527 18.835,0.455 2.645,-4.234 2.499,-10.738 -5.974,-16.639 -4.475,-3.113 1.966,-9.681 1.966,-9.681 1.511,-3.628 -9.374,-9.066 -12.402,-7.561 10.885,-6.053 16.939,3.63 16.939,3.63 6.054,0 14.219,3.02 14.826,8.772 -2.723,7.265 -5.263,20.799 1.206,32.372 7.883,14.104 28.278,22.947 43.833,33.841 h -33.434 c -3.952,-11.739 -6.957,-20.096 -11.988,-19.029"
           style="fill:#34b440;fill-opacity:1;fill-rule:nonzero;stroke:none"
           id="path60029"
           inkscape:connector-curvature="0" /><path
           d="m 586.101,282.082 c -1.883,1.502 -3.737,3.056 -5.576,4.633 h -8.403 c 4.749,-2.002 9.436,-3.592 13.979,-4.633"
           style="fill:#34b440;fill-opacity:1;fill-rule:nonzero;stroke:none"
           id="path60031"
           inkscape:connector-curvature="0" /><path
           d="m 525.297,282.082 c 0,0 -1.445,1.64 -3.817,4.633 h -11.275 c 5.975,-3.896 11.221,-5.812 15.092,-4.633"
           style="fill:#34b440;fill-opacity:1;fill-rule:nonzero;stroke:none"
           id="path60033"
           inkscape:connector-curvature="0" /><path
           d="m 296.586,297.528 c -30.251,0 -55.364,21.926 -60.358,50.749 -1.21,-3.502 -3.18,-6.451 -6.052,-8.579 -17.711,-13.102 -25.173,-36.413 -30.75,-52.983 h 33.434 c 7.134,4.996 13.251,10.421 16.675,16.983 0.532,-3.997 -1.035,-9.867 -4.009,-16.983 H 346.07 c -1.623,4.755 -2.383,8.744 -1.989,11.703 2.26,-4.329 5.701,-8.16 9.821,-11.703 h 38.506 c -5.431,15.952 -13.072,35.942 -28.967,47.704 -3.689,2.729 -5.896,6.807 -6.907,11.676 -5.853,-27.741 -30.465,-48.567 -59.948,-48.567"
           style="fill:#ffffff;fill-opacity:1;fill-rule:nonzero;stroke:none"
           id="path60035"
           inkscape:connector-curvature="0" /><path
           d="m 181.464,307.059 c -2.177,3.52 -9.076,2.993 -15.427,-0.033 -4.537,0.61 -15.019,-5.277 -9.875,-11.329 -2.117,2.422 5.07,6.868 9.268,5.276 0,0 -1.098,-3.744 1.025,-7.372 2.118,-3.629 8.354,-2.908 10.475,-4.12 0.483,-0.278 0.758,-1.304 0.866,-2.766 h 6.105 c 0.058,8 0.023,16.365 -2.437,20.344"
           style="fill:#ffffff;fill-opacity:1;fill-rule:nonzero;stroke:none"
           id="path60037"
           inkscape:connector-curvature="0" /><path
           d="M 14.317,363.599 C 48.804,366.323 89.194,398.09 89.194,398.09 78.299,369.951 47.9,319.585 7.511,287.363 51.073,297.344 107.799,357.245 107.799,357.245 95.546,318.219 68.32,287.363 68.32,287.363 c 20.874,-6.353 81.684,77.146 81.684,77.146 1.813,-19.057 -17.55,-58.09 -29.647,-73.516 43.563,20.309 76.838,87.13 76.838,87.13 0,0 3.328,-25.412 -18.758,-56.271 18.157,-1.812 45.533,34.034 50.98,67.16 3.091,-6.082 5.513,-12.645 6.93,-19.012 5.263,28.493 30.221,50.082 60.239,50.082 31.536,0 57.496,-23.826 60.891,-54.457 1.439,6.083 3.777,12.314 6.722,18.108 5.447,-33.127 32.825,-68.982 50.974,-67.166 -22.085,30.863 -18.756,56.276 -18.756,56.276 0,0 32.229,-64.716 74.772,-86.128 h 1.306 c -12.132,16.049 -30.662,53.848 -28.882,72.513 0,0 40.344,-55.401 66.592,-72.513 h 11.275 c -7.929,10.01 -26.233,35.208 -35.664,65.251 0,0 45.509,-48.055 86.306,-65.251 h 8.403 c -37.593,32.245 -65.721,79.274 -76.108,106.096 0,0 40.391,-31.768 74.883,-34.49 -12.607,8.402 -47.645,43.011 -69.402,72.575 H 79.736 C 57.904,402.62 26.181,371.508 14.317,363.599"
           style="fill:#ffffff;fill-opacity:1;fill-rule:nonzero;stroke:none"
           id="path60039"
           inkscape:connector-curvature="0" /><path
           d="m 153.329,292.508 c -2.64,2.637 -8.91,0.506 -10.618,-5.793 h 15.28 c -2.094,2.727 -3.791,4.923 -4.662,5.793"
           style="fill:#ffffff;fill-opacity:1;fill-rule:nonzero;stroke:none"
           id="path60041"
           inkscape:connector-curvature="0" /><path
           d="m 567.041,430.477 c -0.252,0.134 -0.504,0.28 -0.757,0.419 h -7.185 c 2.701,-0.374 5.359,-0.529 7.942,-0.419"
           style="fill:#ffffff;fill-opacity:1;fill-rule:nonzero;stroke:none"
           id="path60043"
           inkscape:connector-curvature="0" /><path
           d="m 427.161,288.321 c 2.123,3.629 1.022,7.373 1.022,7.373 4.196,1.589 11.39,-2.858 9.276,-5.281 5.14,6.053 -5.34,11.939 -9.88,11.328 -6.35,3.03 -13.251,3.554 -15.432,0.03 -1.918,-3.102 -2.36,-8.873 -2.436,-15.056 h 15.907 c 0.619,0.414 1.153,0.934 1.543,1.606"
           style="fill:#ffffff;fill-opacity:1;fill-rule:nonzero;stroke:none"
           id="path60045"
           inkscape:connector-curvature="0" /><path
           d="m 440.289,287.222 c -0.134,-0.135 -0.295,-0.312 -0.469,-0.507 h 7.691 c -2.491,1.942 -5.571,2.162 -7.222,0.507"
           style="fill:#ffffff;fill-opacity:1;fill-rule:nonzero;stroke:none"
           id="path60047"
           inkscape:connector-curvature="0" /><path
           d="M 144.102,567.808 C 108.837,535.861 66.506,456.931 26.57,435.753 c 32.068,-1.359 75.333,37.664 75.333,37.664 0.685,-9.253 -8.921,-25.366 -22.167,-42.521 h 430.162 c -11.136,15.133 -18.796,28.946 -18.18,37.243 0,0 36.569,-32.988 67.381,-37.243 h 7.185 c -39.708,21.761 -81.728,99.879 -116.768,131.63 -21.98,19.912 -58.545,5.141 -44.928,-28.135 35.378,-86.49 -47.049,-89.409 -57.942,-81.242 -6.651,4.84 1.211,5.447 14.527,0.603 0,0 -18.762,26.019 -24.205,35.097 0,0 7.868,0 10.889,-3.631 -4.238,12.707 -26.624,52.641 -31.46,58.385 l 9.675,-1.662 c -23.592,30.451 -85.765,41.295 -86.219,23.447 -22.385,3.326 -38.42,0.906 -36.605,-14.522 1.598,-13.577 12.786,-16.611 14.214,-16.936 -4.524,9.985 22.381,26.393 38.713,-5.669 0,0 -19.046,-1.295 -31.751,0 -0.454,-4.605 19.815,-5.532 29.042,-9.019 3.179,-6.795 -0.906,-39.017 -29.643,-56.413 20.871,5.447 23.29,-3.93 23.29,-3.93 -10.894,-8.175 -93.469,-5.716 -58.086,80.773 13.615,33.281 -22.95,48.05 -44.925,28.136"
           style="fill:#e0441f;fill-opacity:1;fill-rule:nonzero;stroke:none"
           id="path60049"
           inkscape:connector-curvature="0" /><path
           d="m 296.586,420.082 c -30.018,0 -54.976,-21.589 -60.239,-50.082 1.781,-7.999 1.968,-15.686 -0.119,-21.723 4.994,-28.823 30.107,-50.749 60.358,-50.749 29.483,0 54.095,20.826 59.948,48.567 -1.186,5.715 -0.718,12.524 0.943,19.53 -3.395,30.631 -29.355,54.457 -60.891,54.457"
           style="fill:#e0441f;fill-opacity:1;fill-rule:nonzero;stroke:none"
           id="path60051"
           inkscape:connector-curvature="0" /></g></g></g></svg>